<svg width="186" height="476" viewBox="0 0 186 476" fill="none" xmlns="http://www.w3.org/2000/svg">
<g clip-path="url(#clip0_1_188)">
<path d="M99.2 466.452C97 456.952 96.9 455.952 97.2 406.952C97.4 374.652 97.9 357.252 98.5 357.252C99.1 357.252 99.7 372.852 100 400.952C100.4 433.352 100.8 445.552 101.8 447.652C102.6 449.552 102.9 454.352 102.7 462.852C102.5 469.652 102.2 475.452 101.9 475.652C101.7 475.852 100.5 471.752 99.2 466.452Z" fill="white"/>
<path d="M87 250.752C87 121.052 87.3 88.1523 88.3 88.4523C90.1 89.1523 90.1 412.352 88.3 413.052C87.3 413.352 87 380.452 87 250.752Z" fill="white"/>
<path d="M23.7 335.452L10 321.752V297.952V274.152L17.3 274.452L24.5 274.752L24.8 280.052C25.1 284.752 24.9 285.452 23.1 285.952C21.1 286.452 21 287.152 21 301.552V316.752L31.2 326.952C41.2 336.952 41.6 337.252 46 337.252C50.3 337.252 50.8 336.852 59.2 328.552L68 319.752V328.152V336.452L61.5 342.852L55 349.252H46.2H37.5L23.7 335.452Z" fill="white"/>
<path d="M97.2 341.752C97.4 338.752 97.8 336.252 98.3 336.252C98.7 336.252 110.3 336.252 124 336.252H149V341.752V347.252H123H96.9L97.2 341.752Z" fill="white"/>
<path d="M73.2 340.952C71.1 338.752 71 337.752 71 317.952V297.152L60.9 287.152C51.5 277.652 50.9 276.852 51.2 273.452C51.5 269.952 51.7 269.752 55.3 269.452C59 269.152 59.6 269.552 71.1 280.852L83 292.652V315.752V338.852L80 341.052C76.3 343.752 75.9 343.752 73.2 340.952Z" fill="white"/>
<path d="M98.7 328.552C98.3 328.252 98 314.052 98 297.052V266.252H107.8H117.5L138.3 287.052L159 307.752L148.5 318.252L138.1 328.652L134.5 324.952C132.6 322.952 131 320.952 131 320.552C131 320.052 133.7 317.052 137 313.752L143 307.752L127.8 292.552C119.4 284.152 112 277.252 111.3 277.252C110.3 277.252 110 281.752 110 296.952V316.652L116 310.752L122 304.752L126.1 308.852L130.2 312.952L122 321.152L113.8 329.252H106.6C102.6 329.252 99 328.952 98.7 328.552Z" fill="white"/>
<path d="M41.2 298.452C30 286.152 30 286.152 30 279.852C30 274.552 30.1 274.252 32.5 274.252H35V256.452V238.752L56.8 216.952C68.7 205.052 78.9 195.252 79.3 195.252C79.7 195.252 80 213.152 80 235.052V274.852L77.2 277.552L74.4 280.252L71.1 276.852L67.8 273.452L67.9 248.352C68 234.552 67.9 223.252 67.6 223.252C67.3 223.252 62.6 227.952 57 233.652L46.9 244.052V265.752C46.9 279.352 47.3 287.952 47.9 288.552C48.6 289.252 49.7 288.852 51.4 287.352C53.6 285.252 54.1 285.152 55.9 286.452C57 287.252 58.8 289.052 59.9 290.452L61.9 292.952L55.1 299.652L48.3 306.352L41.2 298.452Z" fill="white"/>
<path d="M164.9 293.552C154.3 282.552 114.3 240.952 105.5 231.752C94.9 220.752 96 231.852 96 132.452C96 48.6523 96.1 44.9523 98 38.0523C99.1 34.1523 100.2 30.7523 100.5 30.4523C101.8 29.1523 100.9 57.0523 99.5 61.6523C98.2 65.8523 98 77.3523 98 135.652C98 199.452 98.1 205.052 99.8 208.252C101.2 211.152 108.3 216.252 138.5 236.452C172.9 259.352 175.9 261.052 180.5 261.452L185.5 261.752L185.8 282.552L186 303.252H180.2H174.4L164.9 293.552Z" fill="white"/>
<path d="M0.7 244.552C0.3 244.252 0 235.652 0 225.552V207.252L4.8 207.152C9.2 207.152 11.3 205.952 41.9 185.452C59.8 173.552 75.3 162.452 76.4 160.952C78.5 158.152 78.5 156.752 78.8 97.9523C79.1 45.6523 78.9 36.9523 77.5 31.7523C75.9 25.7523 74.8 -1.34766 76.2 0.0523385C76.6 0.452338 77.8 4.25234 78.9 8.45234C80.9 15.9523 81 18.4523 80.9 91.9523C80.9 148.052 80.6 168.552 79.7 170.952C79 172.752 75.2 177.752 71.1 181.952C62 191.552 17.7 237.552 13.4 242.052C10.7 244.752 9.5 245.252 5.8 245.252C3.3 245.252 1 244.952 0.7 244.552Z" fill="white"/>
<path d="M115.3 207.352C113.1 205.752 110.2 202.752 108.9 200.552C106.7 197.052 106.5 195.452 106.2 181.852L105.8 166.952L110.4 170.752C112.9 172.752 115 174.952 115.1 175.652C115.1 176.252 115.1 179.252 115 182.352C114.8 190.952 116.4 195.752 120.9 199.352L124.8 202.452L122.7 206.352C121.6 208.452 120.3 210.252 120 210.252C119.6 210.252 117.5 208.952 115.3 207.352Z" fill="white"/>
<path d="M54.2 157.952L51.9 153.852L56.2 150.152L60.5 146.452L60.8 136.452L61.2 126.352L65.5 122.752C67.9 120.852 70.1 119.252 70.4 119.252C70.7 119.252 71 124.952 71 132.052C71 143.352 70.7 145.352 68.6 149.752C66.3 154.752 63.8 157.452 59 160.452C56.5 161.952 56.4 161.952 54.2 157.952Z" fill="white"/>
</g>
<defs>
<clipPath id="clip0_1_188">
<rect width="186" height="475.659" fill="white"/>
</clipPath>
</defs>
</svg>
