<svg width="123" height="353" viewBox="0 0 123 353" fill="none" xmlns="http://www.w3.org/2000/svg">
<g clip-path="url(#clip0_1_187)">
<path d="M57.8 351.6C55.2 349.6 55.6 349 59.5 349C62.3 349 63 349.4 63 351C63 353.3 60.4 353.6 57.8 351.6Z" fill="#175D6C"/>
<path d="M80 350.8C80 348.8 80.1 348.7 82 350.5C83.1 351.5 84 352.5 84 352.7C84 352.8 83.1 353 82 353C80.6 353 80 352.3 80 350.8Z" fill="#175D6C"/>
<path d="M44.5 344C38.7 338.2 37 337 34.3 337C32.5 337 31 336.6 31 336C31 335.5 32 335 33.1 335C34.9 335 35 334.8 34 333.5C32.9 332.2 33.2 332 35.4 332C37.3 332 38 332.5 38 334C38 335.5 38.7 336 40.7 336C42.7 336 45 337.6 49.2 341.7C55 347.5 56.6 351 53.2 351C52.2 351 48.3 347.9 44.5 344Z" fill="#175D6C"/>
<path d="M92.1 349.3C85.8 348.9 85.5 348.7 78.9 342.9C72.4 337.2 72.1 337 66.6 337H61L50 326.3C43.9 320.5 39 315.2 39 314.6C39 314 46.5 305.9 55.8 296.7C72.3 280.3 72.6 280 77 279.9L81.5 279.7L77.7 279.1L73.9 278.5L88.3 264.1C96.6 256 103 250.2 103.4 250.8C104.9 253.2 102.5 257.1 95 264.5C90.6 268.9 87.5 272.7 88.1 273C88.6 273.4 90.8 273.4 92.8 273.1C96.1 272.5 96.5 272.1 96.8 269.2C97 267.5 97.5 266 98.1 266C98.6 266 99 265.3 99 264.5C99 263.7 99.9 263 101 263C103.2 263 103.7 265.9 101.9 267.7C101.2 268.4 100.4 270.6 100.1 272.7L99.4 276.5L92.5 276.3C87.6 276.2 86.6 276.4 89.2 276.8L92.9 277.5L86.9 283.8C83.5 287.2 80.6 290 80.4 290C80.2 290 80 288.7 80 287C80 280.8 76.4 283.1 60.3 299.3L45.1 314.5L54.1 323.8L63.2 333H69.1C76 333 76.9 331.5 70.8 330.5C67.3 329.9 65.2 328.5 59.8 323.2C53.7 317.3 53 316.2 53 312.8C53 309.8 53.4 309 54.9 309C55.9 309 59.8 305.9 63.6 302C69.5 295.9 70.9 295 73.9 295H77.4L70.5 302L63.6 309L71 316.5C75.1 320.6 79.1 324 79.9 324C81.4 324 106 347.8 106 349.2C106 349.6 104.3 349.9 102.3 349.8C100.2 349.7 95.6 349.5 92.1 349.3ZM92 337.5C86.8 332.3 81.6 327.7 80.5 327.4C79.4 327.1 74.9 323.3 70.5 319C63.5 312.1 62.2 311.2 59.7 311.7C58.2 312 57 312.6 57.2 313.1C58.1 315.6 70.5 327 72.3 327C74.3 327 83 334.5 83 336.2C83 336.6 81.6 337 79.8 337H76.6L81 341.5C85.5 346.1 85.1 346 98.5 346.8C101.3 347 100.9 346.4 92 337.5Z" fill="#175D6C"/>
<path d="M58.8 342.6C58.4 339.2 58.4 339.2 60.7 341C62.3 342.3 64.1 342.6 67.7 342.3C71.6 341.9 73 342.2 75 343.9L77.5 345.9L68.4 346H59.2L58.8 342.6Z" fill="#175D6C"/>
<path d="M46.1 328.5C38.8 321.3 35.9 319 33.6 318.8C30.8 318.5 30.5 318.1 30.2 315C29.9 311.6 30.7 310.7 44 297.5C54 287.6 57.6 283.4 56.4 283.2C55.3 282.9 50.2 287.3 42.1 295.4C33.6 303.8 28.8 308 27.3 308C24.7 308 18.4 314.3 20.2 314.9C22.6 315.7 24 317.9 24 320.6C24 322.8 23.8 323.1 22.5 322C19.3 319.3 12.2 327.6 13.4 332.6C13.8 333.9 14.7 335 15.5 335C16.3 335 17 335.5 17 336.1C17 336.7 15.8 337 14.3 336.8C11.6 336.5 11.5 336.2 11.5 331.3C11.6 326.8 12 325.6 14.8 322.7C18.6 318.8 18.7 318.3 15.8 315.3L13.6 313L17.5 309C19.7 306.8 22.3 305 23.5 305C24.8 305 30.4 300.1 39 291.5C46.4 284.1 53.1 278 53.8 278C54.5 278 54.9 277.6 54.6 277.2C54.3 276.7 57.5 273 61.5 269L69 261.6V265C69 267.6 68.1 269.3 65.4 272.1C62.8 274.8 62.2 275.9 63.3 276.3C64.2 276.6 69.9 271.6 79.1 262.4C91.4 250.1 93.1 248 90.9 248C89.5 248 88 247.6 87.4 247C86.8 246.4 84.1 248.4 79.5 253C75.7 256.9 72.1 260 71.5 260C71 260 74.6 256 79.5 251C88.4 242.1 88.4 242.1 90.9 243.7C92.3 244.6 95.1 245.2 97.2 245.2C99.6 245.1 101 245.5 101 246.3C101 248 35.8 313 34 313C33.2 313 38.1 318.6 45 325.5C51.9 332.4 57 338 56.5 338C55.9 338 51.2 333.7 46.1 328.5ZM62.5 280.3C61.4 280 60.1 279.4 59.6 278.9C59 278.4 57.9 278 57.1 278C56.1 278 56.5 278.6 58 279.4C59.4 280.2 61.4 280.8 62.5 280.8H64.5L62.5 280.3Z" fill="#175D6C"/>
<path d="M105 305L102.9 302H105.9C108.7 302 109 302.3 109 305C109 306.7 108.6 308 108.1 308C107.6 308 106.2 306.7 105 305Z" fill="#175D6C"/>
<path d="M24 298.2C24 296 25.5 293.9 30.5 289.1C36 283.8 37 282.3 37 279.4C37 276.6 36.6 276 34.8 276C32.8 276 32.8 275.8 36 272.5C37.8 270.6 39.7 269.3 40.2 269.6C40.6 269.9 41 273.5 41 277.6V285L33.4 293C29.2 297.4 25.3 301 24.9 301C24.4 301 24 299.7 24 298.2Z" fill="#175D6C"/>
<path d="M105 290.1C105 288.7 104 288 101.4 287.6C99.5 287.2 97 286 95.8 284.8L93.8 282.8L90.9 285.6C89.3 287.1 88 287.9 88 287.4C88 286.8 89.8 284.7 92 282.5L96 278.6L98.3 280.8C99.6 282 101.1 283 101.7 283C102.3 283 104.2 284.2 105.9 285.6C109.5 288.6 110 292 107 292C105.7 292 105 291.3 105 290.1Z" fill="#175D6C"/>
<path d="M23.3 286.3C21.4 282.3 21.7 280.8 24.3 281.2C26.1 281.4 26.6 282.2 26.8 285.3C27.2 289.8 25.1 290.4 23.3 286.3Z" fill="#175D6C"/>
<path d="M44 278.5C44 277.1 44.5 276 45 276C45.6 276 46 275.4 46 274.8C46 274.1 48.8 270.7 52.2 267.3L58.4 261L54.7 257.2C51.8 254.2 51 252.6 51 249.7C51 246.3 51.2 246 54 246C56.8 246 56.9 246.2 55.8 248C54.7 249.8 55.1 250.6 60 255.5L65.5 261.1L55.5 271C50 276.4 45.2 280.9 44.8 281C44.3 281 44 279.9 44 278.5Z" fill="#175D6C"/>
<path d="M28 272.4C28 269.7 28.5 268.7 29.9 268.3C31 268 32 267 32.3 265.9C32.7 264.5 33.7 264 36 264C39.6 264 39.4 264.5 33.8 270.3C32.2 271.9 31 273.8 31 274.6C31 275.4 30.3 276 29.5 276C28.4 276 28 274.9 28 272.4Z" fill="#175D6C"/>
<path d="M11 261.9V253.5L21.5 243C27.3 237.2 32 232.2 32 231.8C32 229.5 28.6 231.9 21 239.5C16.3 244.2 12.2 248 11.8 248C11.4 248 11.1 245.6 11.1 242.6C11.2 238 11.6 236.8 14.1 234.4C16.1 232.5 17 230.6 17 228.4C17 226.2 17.7 224.8 19.3 223.7C21.5 222.2 21.4 222.1 10.8 211.3C4.8 205.3 0 200.1 0 199.7C0 198.6 13.8 198.9 14.5 200C14.8 200.6 16.5 201 18.1 201C20.2 201 22.5 202.3 25.8 205.3C28.4 207.6 30.7 209.9 30.9 210.4C31.1 210.8 34.1 208.4 37.5 205C41.8 200.7 44.3 198.9 45.4 199.3C46.3 199.7 47 200.5 47 201.3C47 202.9 30.8 219 29.2 219C28.5 219 28 219.7 28 220.6C28 221.4 26.7 222.6 25 223.1C23.1 223.8 22 224.9 22 226C22 227.1 21.6 228.2 21 228.5C20.5 228.8 20 230.1 20 231.3C20 233.2 20.3 233.1 23.3 230.2C27.5 226.1 33.4 225.6 34.4 229.3C35.9 234.8 35.1 236.5 27.7 243.8C22.3 249.2 19.8 251 17.7 251H15V258.8C15 265.4 14.7 267 13 268.5C11 270.3 11 270.2 11 261.9ZM27.7 215L29.9 212.5L25.7 208.3C23.4 205.8 20.7 204 19.4 204C18.2 204 15.6 203.3 13.7 202.5C9.9 200.9 5 200.5 5 201.7C5 202.1 8.9 206.4 13.7 211.2C23.1 220.6 22.9 220.6 27.7 215Z" fill="#175D6C"/>
<path d="M22 266.2C22 265.3 31.8 254.7 43.8 242.7L65.7 220.8L68.6 223.7C70.2 225.2 74 228.6 77 231.2L82.5 236H78.8C76.7 236 75 235.6 75 235C75 234.5 74.4 234 73.7 234C71.7 234 68 229.7 68 227.4C68 226.1 61 232.5 46.7 246.8C35 258.4 24.7 268 23.7 268C22.7 268 22 267.2 22 266.2Z" fill="#175D6C"/>
<path d="M34.3 246.5C46.7 233.8 50 229.9 50 227.8C50 225.5 50.5 225.1 53.3 224.8C56.1 224.5 56.5 224.1 56.8 221.4C57 219.6 58 217.4 59.1 216.4C60.9 214.8 61.2 214.8 62.6 216.2C64 217.6 62.1 219.8 42.3 239.3C30.3 251.1 20.1 261.2 19.5 261.6C19 262.1 25.6 255.2 34.3 246.5Z" fill="#175D6C"/>
<path d="M47.6 260.5C48.3 258.7 45 258.4 43.2 260.2C42.3 261.1 42 260.7 42 258.2C42 255.1 42.2 255 46 255C49.9 255 50 255.1 50 258.5C50 260.9 49.5 262 48.5 262C47.6 262 47.3 261.4 47.6 260.5Z" fill="#175D6C"/>
<path d="M63.1 253.5C61 251.4 60 249.6 60.3 248.6C61.2 246.3 63.7 246.7 65.7 249.4L67.5 251.9L75.2 244.2C82.6 237 83.1 236.7 84.7 238.3C86.4 239.9 86 240.5 78 248.5C73.3 253.2 68.9 257 68 257C67.2 257 65 255.4 63.1 253.5Z" fill="#175D6C"/>
<path d="M65 243.5C66.3 242.1 68 241 68.9 241C70 241 69.9 240.7 68.5 239.6C66.8 238.4 66.2 238.4 63.7 240.2L60.9 242.2L61.2 238.9C61.5 235.5 61.6 235.5 66.5 235.5H71.5L71.8 239.9C72.2 244.9 71.2 246 66.1 246H62.7L65 243.5Z" fill="#175D6C"/>
<path d="M104.6 243.1C104.2 242.6 101.6 241.9 98.7 241.5C93.7 240.8 93.1 240.4 83.6 230.7C74.1 220.9 73.9 220.5 76.5 220.2C79.9 219.8 84 223.7 84 227.5C84 229.6 84.5 230 86.8 230C88.7 230 90.8 231.2 93.5 234C96.3 236.9 98.2 238 100.4 238C103.2 238 103.2 237.9 101.6 236.1C100.6 235 100 233 100.2 231.3C100.5 228.5 100.6 228.6 107.8 235.7C111.7 239.7 115 243.2 115 243.5C115 243.8 113.9 244 112.6 244C110.8 244 110 243.3 109.7 241.8L109.3 239.5L109.1 241.8C109 244 105.7 245 104.6 243.1Z" fill="#175D6C"/>
<path d="M39 225C39 224.5 38.3 224 37.5 224C36.5 224 36 223 36 220.7C36 218 37.2 216.3 43 210.5C49.6 203.9 50.1 203.7 51.7 205.3C53.3 206.9 53 207.4 46.1 214.4C41.2 219.3 39.2 222 40 222.5C40.8 223 43.8 220.7 48 216.5C52.7 211.9 55.3 209.9 56.4 210.3C59.2 211.4 58.2 213.4 51.7 219.8C46.6 224.8 44.8 226 42.2 226C40.5 226 39 225.6 39 225Z" fill="#175D6C"/>
<path d="M88.8 220.2C86 217.5 83.9 214.8 84.1 214.1C84.3 213.5 87.2 215.7 90.5 219C97.5 226.1 96.1 227.1 88.8 220.2Z" fill="#175D6C"/>
<path d="M110.8 222.3C108.7 221.8 108.4 219.4 110.3 218.7C111.8 218.1 115 220.2 115 221.9C115 223 113.9 223.1 110.8 222.3Z" fill="#175D6C"/>
<path d="M88.9 214C81.9 206.7 79 204.6 79 206.8C79 207.2 79.5 208.1 80.2 208.8C81.1 209.7 80.7 210 78.2 210C75.2 210 75 209.8 75 206.5V203H80C84.9 203 85 203.1 85 206C85 208.6 85.4 209 87.8 209C89.7 209 92.1 210.6 95.8 214.1C101.4 219.5 102.3 222 98.8 222C97.3 222 94 219.3 88.9 214Z" fill="#175D6C"/>
<path d="M63.9 210.8C59.1 206 58.8 205.5 60.9 205.2C64.2 204.7 66 205.7 66 208C66 209.3 66.7 210 68 210C69.6 210 70 210.7 70 213C70 214.7 69.8 216 69.6 216C69.4 216 66.9 213.6 63.9 210.8Z" fill="#175D6C"/>
<path d="M94.5 203C88 196.5 82.8 190.8 83.1 190.6C83.4 190.3 89.2 195.7 96 202.5C102.9 209.4 108 215 107.5 215C106.9 215 101.1 209.6 94.5 203Z" fill="#175D6C"/>
<path d="M117 209.5C114.6 207 112.2 205 111.8 205C111.4 205 111 206.6 111 208.5C111 210.4 110.6 212 110.2 212C109 212 85 187.5 85 186.2C85 183.9 89.5 182 95 182C100 182 101.1 182.4 104.8 185.6C107.1 187.5 109 189.8 109 190.6C109 194.7 112.5 202.1 116.1 205.6L120 209.4V205.9C120 203.6 119.3 201.7 118 200.5C116.6 199.2 116 197.4 116 194.3C116 192 116.5 190 117 190C117.6 190 118 191.5 118 193.4C118 195.2 118.9 197.8 119.9 199.2C122.6 202.5 123.2 205.8 122.3 210.3L121.5 214.1L117 209.5ZM107.1 199.1C106.5 198 106 196.3 106 195.3C106 194.3 104.4 191.8 102.5 189.8C99.5 186.6 98.3 186 94.8 186H90.5L99 194.5C106.8 202.4 109.7 204 107.1 199.1Z" fill="#175D6C"/>
<path d="M53.3 200.3C50.3 198.3 50.4 197 53.5 197C55.5 197 56 197.5 56 199.5C56 202.4 56.2 202.4 53.3 200.3Z" fill="#175D6C"/>
<path d="M68 198.5C68 197.7 68.7 197 69.5 197C71.7 197 71.4 196.3 67.5 192.3C65.6 190.3 64.1 188.5 64.3 188.3C65.4 187.3 71.3 189.5 71.7 191.2C72 192.2 72.9 193 73.6 193C74.5 193 75 194.2 75 196.5C75 199.8 74.8 200 71.5 200C69.1 200 68 199.5 68 198.5Z" fill="#175D6C"/>
<path d="M45.5 192C43.7 190 43.8 190 47.3 190C50.3 190 51 190.4 51 192C51 193.3 50.3 194 49.2 194C48.1 194 46.5 193.1 45.5 192Z" fill="#175D6C"/>
<path d="M60 191.5C60 189 60.1 189 62.5 190.6C63.9 191.5 65 192.6 65 193.1C65 193.6 63.9 194 62.5 194C60.5 194 60 193.5 60 191.5Z" fill="#175D6C"/>
<path d="M116 187.7C116 185.7 110.3 180.7 109 181.5C108.3 182 104.9 179.2 100.2 174.4C92.6 166.6 92.5 166.5 95.4 166.2C97.6 165.9 99.1 166.7 101.9 169.4C103.9 171.4 106.4 173 107.3 173C108.2 173 109 173.7 109 174.5C109 175.4 111 178.3 113.5 180.9C117.7 185.4 119.3 189 117 189C116.5 189 116 188.4 116 187.7Z" fill="#175D6C"/>
<path d="M72 180.5C66.3 174.8 63.9 173 61.8 173C59.7 173 59 172.5 59 171C59 167 62.7 169.1 72 178.5C77.2 183.7 81 188 80.5 188C79.9 188 76.1 184.6 72 180.5Z" fill="#175D6C"/>
<path d="M73 175.5C64.4 166.9 63.2 166 59.8 166C57.7 166 56 165.6 56 165.2C56 163.3 58.7 162 62.3 162C65.9 162 67 162.7 74.9 170.5C80.4 175.8 84 178.6 84.7 178.2C85.6 177.6 84.1 175.5 80 171.5C75.1 166.6 74 165 74 162.3C74 160 74.5 159 75.5 159C76.5 159 77 158 77 156C77 153.2 77.3 153 80.5 153C82.4 153 84 153.5 84 154C84 154.6 84.9 155 86 155C87.6 155 88 155.7 88 158.1C88 161 87.8 161.1 86.3 159.9C85.3 159.1 83.9 157.7 83.2 156.7C82 155.1 81.7 155.2 79.3 158.1L76.7 161.2L86.6 171.1L96.5 181H92.4C89.6 181 87.7 181.6 86.5 183C85.5 184.1 84.2 185 83.6 185C83 185 78.2 180.7 73 175.5Z" fill="#175D6C"/>
<path d="M36.4 183C35.6 182.2 30.4 181.9 20.1 181.9C11.6 182 5 181.7 5 181.2C5 179.7 13.5 172.3 16.1 171.5C17.4 171.1 19.5 169.9 20.7 168.8C22.4 167.2 23.6 166.9 26.7 167.4C28.8 167.8 33.1 168.4 36.2 168.7C41.1 169.1 42.3 169.6 44.1 172.1L46.1 175H43.1C41.5 175 39.8 174.6 39.5 174C39.2 173.5 37.1 173 34.9 173C32.8 173 31 172.6 31 172C31 171.5 30.1 171 29 171C27.9 171 27 171.5 27 172C27 172.6 25.9 172.3 24.6 171.5C22.9 170.3 22 170.2 21.5 171C21.1 171.7 18.9 173 16.6 173.9C12.4 175.8 9.2 178.6 10.3 179.6C10.6 179.9 15.6 179.9 21.5 179.5C30.3 178.9 31.9 178.5 30.9 177.4C30 176.3 30.3 176 32.4 176C36 176 38.2 178.3 37.8 181.6C37.6 183.5 37.2 183.8 36.4 183Z" fill="#175D6C"/>
<path d="M46.5 171C44.7 169.1 44.8 169 46.8 169C48.3 169 49 169.6 49 171C49 172.1 48.8 173 48.7 173C48.5 173 47.5 172.1 46.5 171Z" fill="#175D6C"/>
<path d="M31 167C30.2 166.5 27.1 166 24.3 166C18 166 17.1 164.1 23.3 163.9C25.6 163.8 26.5 163.5 25.3 163.3C23.8 163 23 162.1 23 160.9C23 158.6 21.5 158.4 20.6 160.5C20.3 161.3 19.2 162 18.1 162C17.1 162 16 162.9 15.7 164C15.3 165.5 14.3 166 11.8 166C8.3 166 8.3 166 8.1 161.1C8.1 158.5 8.6 155 9.4 153.5C10.2 151.9 10.6 149.5 10.4 148.1C10 146.1 10.5 144.7 12.7 142.6L15.5 139.7L15.8 142.6C16 144.2 15.7 145.6 15.1 145.8C14.5 146 14 147.3 14 148.8V151.4L17.3 148.2C19.4 146.2 21.6 145 23.3 145C25.6 145 26 144.6 26 142.3C26 140 30.5 135 51.2 114.3C78 87.4 78.3 87.1 70.9 85.5C68.6 85 68 84.3 68 82.1C68 80.6 67.1 78.5 66 77.5C64 75.7 63.8 75.8 51.6 87.8C44.9 94.5 38.8 100 38.2 100C37.5 100 37 100.6 37 101.3C37 102 34.3 105.2 31 108.5C27.7 111.8 25 115.3 25 116.4C25 118 25.3 118.1 26.2 117.2C27.5 115.9 31.8 115.6 34.4 116.6C35.5 117 36 118.5 36 121.4C36 124.9 35.4 126.2 32.6 128.9C30.1 131.3 28.5 132.1 26.5 131.8L23.7 131.5L28.4 126.3C34.6 119.4 32.5 118.4 25.4 124.9C22.3 127.7 19.3 130 18.6 130C18 130 15.7 131.8 13.5 134C11.4 136.1 9.3 137.7 8.8 137.4C7.5 136.6 7.8 131.7 9.5 127C10.3 124.7 10.7 121.8 10.4 120.5C9.6 117.4 11.9 113.4 17.4 108C20 105.5 22 102.7 22 101.4C22 99.4 24.8 96 26.4 96C27.4 96 30 93.4 30 92.3C30 91.9 33.9 87.6 38.8 82.7C45.8 75.6 47.2 73.8 46 73C44 71.7 43 71.8 43 73.2C43 75.2 25.7 92 23.8 92C20.1 92 22.2 88.3 30.7 79.8C39.4 71.1 39.5 71 44.5 71C47.2 71 50.1 70.6 50.8 70.1C51.6 69.6 50 69.5 47.1 69.8C44.3 70 42 69.9 42 69.4C42 68.9 48.4 62.2 56.1 54.4C65.3 45.2 70 39.8 69.5 39C69 38.2 59.9 46.6 42.4 64.1C27.9 78.6 16 90 15.9 89.5C15.8 88.9 15.9 87.5 15.9 86.3C16.2 83.1 14.6 82.8 12 85.5C10.7 86.9 9.3 88 8.8 88C7.4 88 7.9 81.1 9.5 78.7C10.4 77.3 10.9 74.5 10.8 71.8C10.6 67.3 10.9 66.8 16.9 60.3C28.7 47.7 28.3 48 35.2 48H41.4L47.2 42.3C50.4 39.1 53 37.1 53 37.7C53 38.3 51 40.6 48.5 42.9C45.5 45.7 44 47.9 44 49.5C44 51.1 43.4 52 42.5 52C41.7 52 41 52.7 41 53.5C41 54.5 40 55 37.8 55C35.3 55 34.9 54.7 35.8 53.8C37.9 51.7 37.1 51 32.6 51C28.4 51 28 51.3 20.6 59.4C13.2 67.6 13 67.9 13 72.9C13 76 12.3 79.1 11.4 80.5C10.5 81.9 10.2 83 10.6 83C12.4 82.9 14.9 80.3 15.5 77.7C16.4 74.1 19 74.2 19 77.7C19 80.1 21.8 77.7 41.8 57.7C54.3 45.2 65.1 35 65.7 35C66.4 35 67.5 34 68.1 32.8C70.6 27.8 73.2 26 77.7 26C82 26 82 26 82 29.5C82 31.4 81.6 33 81 33C80.5 33 80 34.1 80 35.5C80 37.3 78.9 38.8 76 40.8C73.9 42.3 72.1 44 72 44.5C72 45.1 67.7 49.8 62.5 55C55.7 61.8 53.4 64.6 54.5 65C55.5 65.4 60.7 60.9 69.8 51.8L83.6 38H88.8H94V41.7C94 45.2 93.1 46.4 82.4 57.1C74.9 64.6 71 69.2 71.5 70C72 70.8 77.9 65.6 89.1 54.4C104.2 39.3 106 37.2 106 34.2C106 31.6 106.4 30.9 107.8 31.2C109 31.4 109.6 32.7 109.8 35.9L110.1 40.2L91.8 58.6C81.8 68.7 73.1 77 72.5 77C70.9 77 65 70.7 65 69C65 68.2 70.7 61.8 77.7 54.8C86.9 45.6 89.9 42 88.5 42C87.2 42 81.5 47 73.5 55C61.4 67.1 60.3 68 56.5 68.1C53.5 68.3 53.2 68.4 55.3 68.7C56.8 68.9 58 69.4 58 69.8C58 70.2 52.3 76.2 45.3 83.2C36.2 92.3 33.1 96 34.5 96C35.7 96 41.4 91.1 48.7 83.8L61 71.6L66 76.5L71 81.4L85 67.5C101.4 51.1 102.1 51 100 64.7L98.8 73.5L56.3 115.9C22.7 149.5 13.6 158.1 12.8 156.9C12 155.8 11.9 155.8 12.3 157.2C12.6 158.1 12 159.6 10.9 160.6C6.9 164.2 10.2 163.1 15.5 159L21 154.8L24.1 157.4C25.8 158.8 28.4 160 29.9 160C32.4 160 39 165.3 39 167.3C39 168.3 32.7 168.1 31 167ZM15.7 128.8C18.1 126.2 21 119.2 21.7 114C22.1 111.4 23.8 108.9 28.3 104.3C33.2 99.3 34 98 32.4 98C31.2 98 27 101.4 21.7 106.9C13.1 115.6 13 115.8 13 120.7C13 123.5 12.3 127.4 11.5 129.4C10 132.9 10 133.1 11.7 132.1C12.7 131.6 14.5 130.1 15.7 128.8ZM89.2 80.3C93.9 75.4 95.9 72.5 96.4 70C96.7 68.1 97.4 64.8 97.9 62.8C98.5 60 98.5 59 97.6 59C97 59 91.3 64.2 85 70.5C78.7 76.8 74.2 82 75.1 82C75.9 82 77.7 83.1 79 84.5C80.3 85.9 81.6 87 82 87C82.3 87 85.5 84 89.2 80.3ZM75.2 35.3C76.7 33.8 78 31.7 78 30.6C77.9 28.8 77.5 29 74.5 32.2C69.3 37.8 69.9 40.4 75.2 35.3Z" fill="#175D6C"/>
<path d="M114.2 161.7C111.3 158.8 108.6 155 108.1 153.2C107.2 150.2 107.3 150 109.6 150C110.9 150 112 150.6 112 151.3C112 152.1 113.1 153.7 114.5 155L117 157.3V150.5C117 143.8 117 143.7 119 145.5C120.7 147.1 121 148.6 121 156.6C121 161.7 120.6 166.1 120.2 166.4C119.7 166.7 117 164.5 114.2 161.7Z" fill="#175D6C"/>
<path d="M40.5 164C38.7 162 38.8 162 46 162C53.2 162 53.3 162 51.5 164C50.3 165.3 48.4 166 46 166C43.6 166 41.7 165.3 40.5 164Z" fill="#175D6C"/>
<path d="M98.5 160.8C97.4 160.2 94.4 157.7 91.8 155.2C88 151.5 87 149.9 87 147.3C87 144.5 87.3 144 89.4 144C91.5 144 91.9 143.4 92.2 140.8C92.5 137.7 92.8 137.5 96.8 137.2L101 136.9V140.6C101 144.3 101 144.3 99 142.5C97 140.7 96.9 140.7 93.7 143.8L90.5 147.1L96.2 152.3C99.3 155.2 103.1 158.5 104.7 159.7L107.5 161.9H104C102.1 161.9 99.6 161.4 98.5 160.8Z" fill="#175D6C"/>
<path d="M41 153C41 150.6 40.6 150 38.9 150C37.7 150 35.5 148.9 33.9 147.6C31.4 145.5 31.3 145 32.6 143.9C33.9 142.9 34.9 143.4 39 147.5C41.6 150.1 44.2 152.1 44.8 151.9C45.3 151.7 49.8 147.7 54.6 143.1C63.2 134.9 63.5 134.7 63.8 137.4C64.1 139.6 62.8 141.5 56.4 148.1C49.4 155.2 48.3 156 44.8 156C41.2 156 41 155.8 41 153Z" fill="#175D6C"/>
<path d="M37 144.5L34.6 141.9L65.5 111C94.8 81.7 96.5 80.2 98.2 81.7C100 83.3 99.8 83.6 94.8 88.7C91.2 92.3 88.8 94 87 94C85 94 79.5 99 61.7 116.8C39.8 138.7 39 139.7 40.8 141.3C44.1 144.3 48 143.4 53 138.5C55.5 136.1 57.9 134.1 58.5 134C59 134 56.5 136.9 53 140.5C47.4 146.1 46.1 147 43 147C40.4 147 38.7 146.3 37 144.5Z" fill="#175D6C"/>
<path d="M106 137.3C106 136.3 103.7 133.2 100.8 130.3C95.9 125.3 95.7 124.9 97.3 123.3C98.9 121.7 99.3 121.8 104 126.5C106.7 129.2 109 132.1 109 133C109 133.9 109.7 135.6 110.6 136.8C112.1 138.9 112 139 109.1 139C106.8 139 106 138.5 106 137.3Z" fill="#175D6C"/>
<path d="M39 115C39 114.5 38.3 114 37.5 114C36.5 114 36 113 36 110.7C36 107.8 37.4 106 47 96.5C53.1 90.6 58 85.3 58 84.9C58 84.4 59.6 84 61.5 84C63.9 84 65 84.5 65 85.5C65 86.3 65.9 87 67 87C68.5 87 69 87.7 69 89.8C69 92.1 66.7 94.9 57.3 104.3C47.1 114.4 45.1 116 42.3 116C40.5 116 39 115.6 39 115ZM53.5 101.1C62.1 92.5 64.7 89.4 63.9 88.4C63.1 87.5 60.1 90.1 51 99.3C40.8 109.9 37.7 114 41 112.8C41.5 112.6 47.1 107.4 53.5 101.1Z" fill="#175D6C"/>
<path d="M104 108.9C104.1 107.6 104.6 102.8 105.3 98.2C106.5 90 106.6 89.9 108.4 91.9C109.8 93.4 110.1 94.8 109.6 97.5C109.3 99.4 108.7 102.5 108.4 104.4C108.1 106.3 106.9 108.6 105.9 109.6C104.1 111.2 104 111.2 104 108.9Z" fill="#175D6C"/>
<path d="M98.8 99.7C99.5 98.9 99.5 97.9 99 97C98.3 95.8 97.7 96 95.6 98L93 100.3V95.7C93 91.1 93 91 96.3 91C100.3 91 103 93.8 103 98C103 100.6 102.6 101 100.4 101C98.4 101 98 100.7 98.8 99.7Z" fill="#175D6C"/>
<path d="M39.5 41.3C38.7 39.8 39.3 38.7 42.7 35.4C46.8 31.4 47 31.3 48.7 33.2C50.3 35 50.2 35.2 46.5 39C42.2 43.4 40.9 43.8 39.5 41.3Z" fill="#175D6C"/>
<path d="M33.1 34.6C31.2 32.6 28.7 30.7 27.6 30.4C22.3 28.8 18.6 22 23 22C24.1 22 25.3 22.6 25.6 23.4C25.9 24.2 28.1 25.7 30.4 26.8C35.8 29.4 37.2 31.1 36.8 35L36.5 38.1L33.1 34.6Z" fill="#175D6C"/>
<path d="M85.6 31.8C85.3 30.5 85 27.4 85 24.8C85 22 84.5 20 83.9 20C82 20 80 17.2 80 14.6C80 12.2 80.2 12.1 82 13.2C83.8 14.3 84.7 13.7 91.4 7.10001C95.5 3.10001 99.2 1.0753e-05 99.7 0.300011C100.2 0.600011 100.5 2.10001 100.4 3.70001C100.3 5.20001 100.2 9.50001 100.1 13.3C100 19.9 99.9 20.1 95 25.2C92.3 28 90 30.5 90 30.7C90 30.9 91.2 31 92.6 31C94.9 31 95 31.2 93.6 32.5C91.2 34.9 86.4 34.4 85.6 31.8ZM94.5 23C95.9 21.5 96.6 18.7 97.1 13.2C97.6 9.00001 97.7 5.30001 97.4 5.10001C96.7 4.40001 86 15.2 86 16.6C86 17.2 86.7 18.3 87.5 19C88.3 19.7 89 21.8 89 23.7C89 26.6 89.2 26.9 90.8 26.1C91.7 25.6 93.4 24.2 94.5 23Z" fill="#175D6C"/>
<path d="M21 9C21 7.4 21.4 6 21.9 6C22.4 6 23.8 7.4 25 9L27.1 12H24.1C21.3 12 21 11.7 21 9Z" fill="#175D6C"/>
<path d="M59 352C58.2 351.5 56.3 351 54.9 351C53.5 351 51.5 350.1 50.4 348.9L48.5 346.8L55 347.4C58.6 347.7 64.2 348.3 67.5 348.6C72.4 349.1 73.3 348.9 72.3 347.9C70.4 346 70.7 343 72.7 343C74.4 343 83 350.7 83 352.2C83 353.3 60.8 353.2 59 352Z" fill="#175D6C"/>
<path d="M89.8 348.1C84.5 347.5 83.6 347.1 78.2 341.7C75.1 338.6 71.9 336 71.2 336C70.5 336 70 335.3 70 334.5C70 333.7 70.7 333 71.6 333C72.4 333 72.8 332.6 72.5 332C72.2 331.5 70.8 331 69.4 331C67.4 331 67 330.5 67 327.8C67 325.3 67.3 324.9 68.2 325.8C68.9 326.5 70.5 327 71.8 327C74.5 327 79.7 331.9 79.7 334.4C79.7 335.3 78.8 336 77.8 336C75.1 336 75.6 337.2 80.5 342C84.9 346.3 85.2 346.4 93.3 347.1C97.8 347.5 101.7 347.6 101.9 347.4C102.8 346.6 84.6 328.8 81.5 327.5C79.9 326.7 74.7 322.5 70 318.1C64.5 312.8 61.2 310.4 60.6 311C60 311.6 58.8 312 57.8 312C55.7 312 55.5 313.1 57.2 314.8C58.1 315.7 57.7 316 55.1 316C52 316 51.9 315.9 52.2 312.3C52.5 308.8 52.8 308.5 55.8 308.2C57.5 308 59 307.5 59 306.9C59 306.4 60.4 306 62.1 306C64.8 306 65.1 306.2 64 307.6C62.8 308.9 63.7 310.1 69.5 316C73.3 319.9 78 323.7 80 324.6C82.8 326 105 347.2 105 348.6C105 349.1 96.8 348.8 89.8 348.1Z" fill="#175D6C"/>
<path d="M45.2 332.7C38 325.4 32 318.9 32 318.2C32 317.6 31.3 317 30.5 317C29.4 317 29 315.9 29 313V309H33C37.4 309 38.1 310 34.9 312.2C32.9 313.5 33.3 314.1 47.4 328C55.5 336 62.8 342.6 63.6 342.8C66.5 343.5 65.1 346 61.7 346C58.9 346 56.8 344.3 45.2 332.7Z" fill="#175D6C"/>
<path d="M40 339C37.8 337.3 35.8 337 24.8 337H12V331.8C12 327.1 12.4 326.2 15.7 322.8L19.4 319L16.7 316.2L14.1 313.5L18.1 309.2C22.7 304.4 24 304 24 307.4C24 309.4 23.4 309.9 20.9 310.2C17.9 310.5 18.1 310.7 30.5 323.1C41.2 333.7 43.1 336.1 42.8 338.3L42.5 340.9L40 339ZM28 327.5L20.6 320L16.8 323.7C13.7 326.7 13 328.1 13 331.2V334.9L23.8 335.2C29.7 335.4 34.7 335.4 34.9 335.2C35.2 335.1 32.1 331.6 28 327.5Z" fill="#175D6C"/>
<path d="M49.5 325C39.1 314.6 38.7 314 40.5 312.6C42.4 311.2 42.5 311.4 42.8 314.4C43.2 319.2 55.1 330.7 60 331.2C62.8 331.4 63.6 332 63.8 333.8C64.5 338.4 60.3 335.8 49.5 325Z" fill="#175D6C"/>
<path d="M97.5 297L87.5 286.9L91.8 282.9L96.1 278.8L98.5 281.4C99.8 282.8 101.6 284 102.5 284C103.4 284 105.2 285.1 106.5 286.5C108.8 288.7 109 289.7 109 298C109 302.9 108.7 307 108.2 307C107.8 307 103 302.5 97.5 297ZM102.5 289.3C101.1 288 99.2 287 98.4 287C97.6 287 97 286.5 97 285.8C97 284.9 96.7 284.9 95.8 285.8C94.9 286.7 95.7 288.1 99.5 292.1L104.5 297.1L104.8 294.3C105.1 292.3 104.5 290.9 102.5 289.3Z" fill="#175D6C"/>
<path d="M24 293.2C24 288.8 23.6 284.8 23 284.5C21.1 283.3 21.9 280 24 280C25.1 280 26 280.7 26 281.5C26 282.3 26.5 283 27 283C27.6 283 28 286.1 28 290.3C28 296.4 27.7 298 26 299.5C24 301.3 24 301.2 24 293.2Z" fill="#175D6C"/>
<path d="M71 297.4C71 295.7 72.4 293.2 75 290.4C77.2 288 79 285.6 79 285C79 284.5 76.9 284 74.3 284C69.8 284 69.7 284 71.5 282C72.7 280.7 74 280.3 76 280.6C77.5 281 80 280.5 81.6 279.7C83.3 278.9 86.4 277.8 88.5 277.4L92.5 276.7L87.3 282.3C84.4 285.4 82 288.3 82 288.9C82 290.3 77.3 295.7 73.9 298.1L71 300.1V297.4Z" fill="#175D6C"/>
<path d="M36 285.7C36 282.7 36.4 282 38 282C39.3 282 40 282.7 40 283.8C40 284.9 39.1 286.5 38 287.5C36 289.3 36 289.2 36 285.7Z" fill="#175D6C"/>
<path d="M56.3 283.8C53.8 282.6 53.1 279 55.4 279C56.2 279 58.6 279.8 60.9 280.8C64 282.2 64.7 282.9 63.8 283.8C62.3 285.3 59.3 285.2 56.3 283.8Z" fill="#175D6C"/>
<path d="M27.7 280.3C27.3 280 27 277.8 27 275.4C27 271.5 27.2 271.2 30 270.8C32.3 270.4 32.7 270.6 31.9 271.6C31.3 272.3 31 273.8 31.2 275C31.5 276.9 31.9 276.7 35.8 272.9L40 268.7V271.8C40 276.3 35.7 281 31.6 281C29.8 281 28 280.7 27.7 280.3Z" fill="#175D6C"/>
<path d="M44 273C44 265.8 44.3 264.3 46.2 262.3C47.9 260.5 48.1 259.7 47.2 258.8C46.3 257.9 45.4 258.2 43.3 260.1C41.3 261.8 41 261.9 42.3 260.4C43.2 259.3 44 257.6 44 256.7C44 254.4 50.5 254.3 51.4 256.6C52.6 259.7 52 263.7 50 265.5C48.5 266.9 48 268.6 48 272.5C48 276.4 47.5 278.1 46 279.5C44 281.3 44 281.2 44 273Z" fill="#175D6C"/>
<path d="M58.5 278.2C56.9 277.3 55.3 276.4 55 276.2C54.7 276 55.6 275 56.9 274C59.3 272.3 59.4 272.3 61.4 274.1C62.6 275.3 64.8 276 67.3 276C71.2 276 71.3 276 69.5 278C67.3 280.5 62.6 280.6 58.5 278.2Z" fill="#175D6C"/>
<path d="M76.5 277C78 275.6 80.5 274.9 86.8 274.4C92.7 273.9 95 274 95 274.9C95 275.6 93 276 89.7 276C86.6 276 83.6 276.6 82.4 277.5C81.4 278.3 79.2 279 77.5 279C74.6 279 74.6 279 76.5 277Z" fill="#175D6C"/>
<path d="M96 271.6C96 269.1 96.4 267 96.9 267C97.4 267 98.1 265.9 98.4 264.5C98.8 262.9 99.7 262 101 262C103.4 262 103.6 264.6 101.6 267.6C100.8 268.7 100 270.9 99.8 272.5C99.6 274.4 98.8 275.6 97.8 275.8C96.3 276.1 96 275.4 96 271.6Z" fill="#175D6C"/>
<path d="M11.7 265.8C12 264 13.9 260.8 15.8 258.8C18.6 255.8 20.2 255 22.9 255H26.4L19.5 262C15.7 265.9 12.2 269 11.8 269C11.4 269 11.3 267.5 11.7 265.8Z" fill="#175D6C"/>
<path d="M65.9 265.3C67 263.7 72.4 258 77.9 252.6C87.6 242.9 88 242.7 90.5 244C93.2 245.4 93.8 247 91.7 247C91 247 85.8 251.7 80 257.5C71.6 265.9 69 268 66.7 268H63.9L65.9 265.3Z" fill="#175D6C"/>
<path d="M11.7 257.1C11 254.4 12.9 251.2 16.8 248.2L20 245.7V248.7C20 250.6 19.1 252.5 17.5 254C16.1 255.3 15 256.9 15 257.7C15 259.7 12.3 259.2 11.7 257.1Z" fill="#175D6C"/>
<path d="M66.2 255.8C64.2 253.8 64.8 253 68.2 253C70.7 253 72.5 251.9 76.5 248C80.9 243.7 81.6 242.5 81.2 240C80.9 237.6 80.3 237 78.4 237C77.1 237 76 236.6 76 236C76 235.5 75.3 235 74.5 235C73.5 235 73 234 73 231.9V228.9L76.3 231.1C78 232.3 81 234.7 82.8 236.4L86 239.4L77.3 248.2C72.5 253 68.3 257 68 257C67.7 257 66.9 256.5 66.2 255.8Z" fill="#175D6C"/>
<path d="M100.5 253C101.5 251.9 102.5 251 102.7 251C102.8 251 103 251.9 103 253C103 254.4 102.3 255 100.8 255C98.8 255 98.7 254.9 100.5 253Z" fill="#175D6C"/>
<path d="M61.5 251C59.7 249 59.8 248.9 62.1 246.4C63.4 245 65.8 243.1 67.3 242.3C69.6 241.1 69.9 240.6 68.9 239.4C68.3 238.6 67.2 238 66.6 238C64.7 238 53.7 249.7 54.4 250.9C54.8 251.6 54.3 252 53.1 252C51.4 252 51 251.4 51 248.7C51 245.4 54.3 241 56.7 241C57.3 241 58 240.1 58.3 239C58.6 237.8 59.7 237 60.9 237C62.1 237 63 236.4 63 235.5C63 234.5 64.1 234 66.5 234C68.4 234 70 234.4 70 234.9C70 235.4 70.9 236 72 236.3C73.6 236.7 74 237.7 74 240.9C74 244.5 73.7 245 71.8 245.1C70.4 245.1 68.3 246.6 66.4 249C63.3 252.9 63.2 252.9 61.5 251Z" fill="#175D6C"/>
<path d="M96.7 249.3C96.3 249 96 247.8 96 246.8C96 244.9 99.4 244.2 100.4 245.9C101.1 247 97.6 250.2 96.7 249.3Z" fill="#175D6C"/>
<path d="M11 243.3C11 239.6 11.5 237.9 13 236.5C15 234.7 15 234.8 15 239.7C15 243.4 14.5 245.1 13 246.5C11 248.3 11 248.2 11 243.3Z" fill="#175D6C"/>
<path d="M102.8 242.2C100.7 241.2 99 239.9 99 239.3C99 237.7 106.6 237.5 107.5 239.1C107.9 239.7 108.8 239.9 109.5 239.6C110.7 239.2 114 241.9 114 243.3C114 244.6 106.5 243.8 102.8 242.2Z" fill="#175D6C"/>
<path d="M92.5 239C90.7 237 90.8 237 94.3 237C97.3 237 98 237.4 98 239C98 240.3 97.3 241 96.2 241C95.1 241 93.5 240.1 92.5 239Z" fill="#175D6C"/>
<path d="M31 234.5C32.6 232.6 31.5 229.6 29.5 230.4C28.5 230.8 28 230.3 28 228.9C28 227.2 28.5 226.9 31.8 227.2C35.4 227.5 35.5 227.6 35.8 231.8C36.1 235.9 36.1 236 32.9 236C30.2 236 29.9 235.8 31 234.5Z" fill="#175D6C"/>
<path d="M16.8 230.1C17 227.9 18 225.4 19.1 224.4C20.1 223.5 21 222.1 21 221.5C21 220.8 16.3 215.8 10.5 210.4C4.8 204.9 0 200.2 0 199.8C0 198.4 11.4 199 14 200.5C15.4 201.3 17.8 201.9 19.3 202C21.2 202 23.6 203.5 27 206.6C31.2 210.5 32.2 211.1 33.5 210C34.8 208.9 35 209.2 35 211.9C35 214.7 34.7 215 31.9 215C29.3 215 29 214.8 29.9 213.6C31.7 211.5 23.8 204.4 18 202.9C11.6 201.3 4 200.6 4 201.7C4 202.2 8.1 206.6 13.2 211.4C21.1 218.9 22.7 220.1 24.2 219.1C25.8 218.1 26 218.3 26 220.7C25.9 223.8 23.9 227 22.1 227C21.5 227 21 228.5 21 230.5C21 233.5 20.7 234 18.7 234C16.7 234 16.5 233.6 16.8 230.1Z" fill="#175D6C"/>
<path d="M96.2 231.7C94.9 230.3 94 228.1 94 226.2C94 223.3 93.7 223 90.9 223C88.4 223 86.4 221.7 81.4 216.8C75.5 211.1 75 210.2 75 206.3V202H79C82.2 202 83 202.4 83 203.8C83 204.7 85.5 208 88.5 211C91.5 214 94 216.9 94 217.5C94 218 91.2 215.6 87.7 212.2C84.3 208.8 80.6 206 79.5 206C78.1 206 81.7 210.2 91.5 220L105.5 234H101.9C99.5 234 97.7 233.3 96.2 231.7Z" fill="#175D6C"/>
<path d="M36.7 226.3C36.3 226 36 224.2 36 222.3C36 219.7 36.4 219 38 219C39.3 219 39.8 219.5 39.4 220.5C38.6 222.5 41.6 223.6 43.5 222C44.8 220.9 45 221.2 45 223.9C45 226.8 44.8 227 41.2 227C39.1 227 37 226.7 36.7 226.3Z" fill="#175D6C"/>
<path d="M64 225.1C64 221.9 66 221.6 68.8 224.4L71.5 227H67.7C64.7 227 64 226.6 64 225.1Z" fill="#175D6C"/>
<path d="M96.8 220.9C93.7 219.1 94.9 218 99.7 218H104.5L82 195.5C68 181.5 58.8 173 57.6 173C55.9 173 56.2 173.6 59.3 176.8C62.1 179.7 63 181.4 63 184V187.5L54.5 179C49.8 174.3 46 170.2 46 169.8C46 169.3 49.7 169 54.2 169H62.4L89 195.5L115.5 222H107C102.3 222 97.7 221.5 96.8 220.9Z" fill="#175D6C"/>
<path d="M60 219.7C60 218.7 59.4 218 58.7 218C57.9 218 56.3 216.9 55 215.5C52.7 213.1 52.7 212.9 54.3 211.3C55.9 209.6 56.3 209.8 60.1 213.6C64.1 217.6 64.1 217.6 62 219.5C60.2 221.1 60 221.1 60 219.7Z" fill="#175D6C"/>
<path d="M70 216.5L66.6 213H70.3C73.9 213 74 213.1 74 216.5C74 218.4 73.9 220 73.7 220C73.5 220 71.9 218.4 70 216.5Z" fill="#175D6C"/>
<path d="M115.7 208.3L111 203.5V208V212.5L98 199.5C85.7 187.2 85.1 186.5 86.8 184.8C87.9 183.7 90.5 183 94.7 182.8C100.7 182.5 101.1 182.7 104.9 186.4C107 188.5 109 191.4 109.3 192.9C110.9 200.3 111.6 201.8 115.3 205.8C117.6 208.1 120 210 120.7 210C121.4 210 122 210.7 122 211.5C122 213.9 120.8 213.3 115.7 208.3ZM108 204.3C107.7 202.2 106.8 199.5 106.2 198.3C105.5 197.1 105 194.3 105 192.1C105 188.5 104.7 188 102.7 188C100.1 188 95 185.9 95 184.8C95 184.3 94.3 184 93.5 184C92.7 184 92 184.7 92 185.5C92 186.3 91.3 187 90.5 187C89.7 187 89 187.6 89 188.2C89 189.5 106.9 208 108.1 208C108.4 208 108.4 206.3 108 204.3Z" fill="#175D6C"/>
<path d="M46.7 207.2C44.2 204.6 42.9 199 44.8 199C45.2 199 47.3 200.7 49.3 202.8C52.9 206.5 53 206.7 51.2 208.3C49.5 209.9 49.2 209.8 46.7 207.2Z" fill="#175D6C"/>
<path d="M121.1 205.7C121.1 204.6 120.1 202.6 119.1 201.1C117.9 199.5 116.9 195.7 116.5 191.9C115.9 187 115.2 184.9 113.2 182.7C111.7 181.1 110 180.2 109.1 180.5C108.1 180.9 103.2 176.6 94.5 168L81.4 154.9L79.1 158.1C77.1 160.7 76.9 161.7 77.9 163.2C78.9 164.8 78.7 165 76 165C73.2 165 73 164.8 73 161.3C73.1 155.7 77.6 150.7 82.1 151.2C84.5 151.4 85.8 152.2 86.5 153.8C87 155 87.9 156 88.4 156C89.9 156 98 164.2 98 165.7C98 166.4 98.5 167 99.2 167C99.8 167 101.4 168 102.7 169.2L105 171.3V168.9C104.9 166.1 100.8 161 98.5 161C97.5 161 97 160 97 158V155.1L100.8 157.2C108.3 161.5 109 162.6 109 170.3V177.3L113.5 181.4C117.9 185.5 118 185.8 118 191.7C118 196.3 118.5 198.4 120.1 200.4C121.3 201.9 122 203.9 121.7 205.2C121.4 206.9 121.2 207 121.1 205.7Z" fill="#175D6C"/>
<path d="M52.5 199C50.7 197 50.8 197 61.5 197H72.4L69.2 193.7L66 190.4L70.2 190.9L74.5 191.5L74.8 196.3L75.1 201H64.7C55.6 201 54.1 200.8 52.5 199Z" fill="#175D6C"/>
<path d="M40.9 187.4L34.1 180.8L20 181.3C12.3 181.6 6 181.5 6 181.1C6 179.7 14.6 172.3 17.8 171C19.5 170.3 21 169.3 21 168.8C21 168.1 23.3 168 27.3 168.5C30.7 168.8 35.1 169.2 37.1 169.2C40.3 169.2 41.7 170.2 49.6 178.1C54.5 183 58 187 57.4 187C56.8 187 55.5 186.1 54.5 185C53.5 183.9 51.4 183 49.8 183C47.7 183 47 182.5 47 181C47 179.7 46.3 179 45.2 179C42.9 179 41 177.1 41 174.8C41 173.4 40.2 173 37.4 173C34.2 173 34 173.2 35.2 174.8C35.9 175.7 39.7 179.5 43.6 183.3C50.6 189.9 50.7 190 56.1 190C61.1 190 64 191.2 64 193.2C64 193.6 60.4 194 55.9 194H47.8L40.9 187.4ZM28.5 175C23.9 170.3 21 168.8 21 170.9C21 171.4 19.5 172.3 17.7 172.9C15.8 173.6 13 175.4 11.5 177L8.6 180H21H33.4L28.5 175Z" fill="#175D6C"/>
<path d="M73.4 175C64.1 165.8 63 165 59.4 165H55.5L77 143.5C97.4 123.1 98.5 122.1 100.3 123.7C102 125.3 101.3 126.2 84.3 143.2C63 164.5 63.3 163.6 73.8 174.3C80.7 181.3 84.7 182.9 85.7 179.1C86.4 176.3 90.5 175.9 93.2 178.4L95.5 180.5L91.5 180.8C89.3 181 86.6 182 85.5 183C83.5 184.9 83.4 184.8 73.4 175Z" fill="#175D6C"/>
<path d="M32.5 167C31.4 166.5 25.7 166.1 19.8 166.1C13.8 166 9 165.7 9 165.2C9 164 19.7 156 21.3 156C22.1 156 23.5 156.9 24.5 158C25.5 159.1 27.6 160 29.1 160C32.1 160 39.4 165.5 38.4 167.1C37.8 168.2 35.2 168.2 32.5 167Z" fill="#175D6C"/>
<path d="M117.5 164C115.7 162.1 115.8 162 117.8 162C119.3 162 120 162.6 120 164C120 165.1 119.8 166 119.7 166C119.5 166 118.5 165.1 117.5 164Z" fill="#175D6C"/>
<path d="M34 157.5L26.5 150L30.3 146.3L34 142.6L39.4 147.9C42.4 150.8 45.3 152.9 45.9 152.6C46.6 152.2 47 152.7 47 153.9C47 157.4 41.4 156.7 37 152.8C35.1 151 36.1 152.2 39.3 155.5C42.4 158.8 45 162.3 45 163.3C45 166.8 41.3 164.8 34 157.5Z" fill="#175D6C"/>
<path d="M47 163.2C47 162.3 59.8 148.7 75.5 133C96.5 112 104 103.9 104 102.2C104 100.9 104.4 99 105 98C105.7 96.7 105.6 95.9 104.5 95C103.2 93.9 103 94.4 103 98.1C103 102.4 102.7 102.8 91.2 114.3C84.8 120.7 78.7 126 77.7 126C76.7 126 76 126.8 76 128C76 129.6 75.3 130 72.8 130C70 130 68 131.5 59.5 139.7C54 145.1 61 137.9 75 123.8L100.5 98L98.2 95.8C96.1 93.6 96 93.6 96 95.6C96 96.8 87.1 106.4 71.2 122.3C43.8 149.6 43.2 150 37.7 144.2L35 141.4L61.7 115C87 89.9 88.5 88.7 88.8 91.4C89.1 94 86.8 96.7 64.8 118.7C51.5 132 41.2 143 42 143C44.1 143 93 93.9 93 91.7C93 90.5 93.8 90 96.2 90H99.4L96.5 87C93.8 84.1 93.7 83.9 95.3 82.3C96.9 80.7 97.3 80.9 102.6 86C105.7 89 108.5 92.4 109 93.5C109.4 94.6 109.2 98.3 108.4 101.9L107.1 108.4L78.8 136.7C63.2 152.3 49.7 165 48.8 165C47.7 165 47 164.3 47 163.2Z" fill="#175D6C"/>
<path d="M8.70001 161.4C8.30001 161 8.30001 159.5 8.60001 158.1C10.4 150.3 14 147 14 153.2C14 156.2 14.1 156.3 15.4 154.4C16.2 153.4 17.1 152.8 17.4 153.1C17.7 153.4 16 155.5 13.7 157.8C11.3 160.2 9.10001 161.7 8.70001 161.4Z" fill="#175D6C"/>
<path d="M111 157.5C110.2 156.5 109.1 154.7 108.5 153.4C108 152.2 105.1 148.6 102.1 145.5L96.8 139.9L93.5 143.7C91.1 146.5 90.5 147.8 91.2 148.8C92 149.7 91.6 150 89.6 150C87.4 150 87 149.6 87 146.9C87 144.9 88.1 142.5 90.3 140C95.1 134.2 97.7 134.5 105.6 142.1C110.9 147.3 112 149 112.6 152.6C113.4 158.1 112.9 159.8 111 157.5Z" fill="#175D6C"/>
<path d="M110.7 144.1C105.4 138.6 105 137.8 105 133.4C105 128.8 105 128.7 107 130.5C108.1 131.5 109 133 109 133.9C109 134.8 111.5 138 114.5 141C117.5 144 120 147.2 120 148.2C120 151.6 116.3 150 110.7 144.1Z" fill="#175D6C"/>
<path d="M11 146.2C11 145.1 11.9 143.5 13 142.5C15 140.7 15 140.8 15 144.3C15 147.3 14.6 148 13 148C11.7 148 11 147.3 11 146.2Z" fill="#175D6C"/>
<path d="M27 143.5C28.9 141.6 30.6 140 30.9 140C31.2 140 29.9 141.6 28 143.5C26.1 145.4 24.4 147 24.1 147C23.8 147 25.1 145.4 27 143.5Z" fill="#175D6C"/>
<path d="M55.3 115.5C75.1 95.4 79 91 79 88.6C79 86.4 79.3 86 80.3 86.8C81.2 87.6 83.4 86.1 89.1 80.6C97.1 72.9 96.7 73.7 98.7 61.3C99 59.5 98.8 58 98.3 58C97.3 58 74 81.2 74 82.3C74 82.7 74.7 83 75.5 83C76.3 83 77 83.7 77 84.6C77 86 76.2 86.2 72.5 85.8C68.8 85.3 68.2 85.5 69 86.6C69.6 87.3 70 89.4 69.8 91.2C69.5 94.4 69.3 94.5 65 94.8L60.5 95L63.2 92.6C65.8 90.3 65.8 90.2 64 88.5C62.2 86.9 62 86.9 59.6 89.6L57.1 92.5L57 89.3C57 84.2 57.9 83 61.8 83H65.4L61.7 79.2C58.1 75.5 58 75.3 59.8 73.7C61.5 72.1 61.9 72.3 66.5 77L71.4 82L85.7 67.8L100 53.5V58C100 60.4 99.5 65 98.8 68.1L97.6 73.9L64.6 106.7C46.4 124.7 42.2 128.7 55.3 115.5Z" fill="#175D6C"/>
<path d="M9.39999 132.5C9.79999 129.8 10.3 124.7 10.6 121.4C11.1 115.6 11.4 115 16.6 109.9C20 106.5 22 103.7 22 102.3C22 100.7 22.6 100 24 100C25.4 100 26 99.3 26 97.7C26 94.8 29.3 92 32.6 92C34.9 92 35.1 92.2 33.9 93.6C31.9 96 34.8 97.4 37.7 95.4C39.9 94 40 94.1 40 96.8C40 100.4 38.4 102 34.7 102C32.2 102 31.9 101.8 33 100.5C33.9 99.4 34 98.6 33.2 97.8C31.8 96.4 29.8 97.9 20.5 107.8C13 115.8 12.7 116.3 11.9 122.3C11.5 125.7 10.8 129.9 10.4 131.5L9.69999 134.5L13.8 131C16 129.1 18.2 126.4 18.5 125C18.9 123.6 19.8 121.3 20.6 119.8C21.4 118.4 22 115.9 22 114.3C22 112.3 23 110.5 25.2 108.4C27 106.8 27.9 106.2 27.3 107C26.7 107.8 25.9 111.5 25.5 115.3C25.1 119 24.3 122 23.8 122C23.3 122 23 122.8 23.2 123.8C23.6 126.1 21.3 129 19.2 129C18.3 129 15.6 130.9 13.2 133.3L8.79999 137.5L9.39999 132.5Z" fill="#175D6C"/>
<path d="M32.2 123C33.3 121.3 33.2 120.8 32 120C31.1 119.5 30.1 119.5 29.3 120.2C28.3 121 28 120.6 28 118.6C28 116.4 28.4 116 31.1 116C35 116 37 118 37 121.9C37 124.7 36.7 125 34 125C31.2 125 31.1 124.8 32.2 123Z" fill="#175D6C"/>
<path d="M37.3 116.3C36.6 116.1 36 114.3 36 112.4C36 109.7 36.4 109 38 109C39.3 109 39.8 109.5 39.4 110.5C38.6 112.5 41.6 113.6 43.5 112C44.8 110.9 45 111.2 45 113.9C45 116.7 44.7 117 41.8 116.9C40 116.9 37.9 116.6 37.3 116.3Z" fill="#175D6C"/>
<path d="M22 91.2C22 90.1 22.9 88.5 24 87.5C26 85.7 26 85.8 26 89.3C26 92.3 25.6 93 24 93C22.7 93 22 92.3 22 91.2Z" fill="#175D6C"/>
<path d="M16 86C16 82.3 15.4 82.3 11.8 85.7C9.89999 87.5 8.99999 87.9 8.99999 86.9C8.99999 86.1 10.6 84.2 12.5 82.7C15.2 80.6 16 79.2 16 76.7C16 73.9 17.5 71.9 27 62.5C33.1 56.5 38 51.2 38 50.8C38 50.3 36 50 33.6 50C29.5 50 28.8 50.4 21.9 57.5C14.3 65.2 12.2 69 12.1 74.8C12 78.5 8.89999 85.2 8.19999 83.2C7.99999 82.5 8.49999 80.8 9.39999 79.5C10.3 78.1 11 75 11 72.2C11 67.5 11.3 67.1 19.6 58.2L28.2 49H34.3H40.5L59.7 29.8L78.9 10.6L81.5 13L84.1 15.4L92 7.5C96.4 3.1 100 0.100001 100 0.800001C100 1.5 96.6 5.2 92.5 9.2C85.6 15.7 85.1 16.4 86.5 18C87.3 18.9 88 20.4 88 21.3C88 23.9 84.3 23.3 82.4 20.5C81.5 19.1 80.3 18 79.6 18C79 18 71.1 25.4 62 34.5C52.9 43.6 45 51 44.3 51C43.6 51 43 51.5 43 52.1C43 53.5 22.8 74 21.4 74C20.7 74 20 75 19.6 76.3C18.7 79.8 18.9 84 20 84C20.6 84 20.3 85.1 19.4 86.5C17.2 89.8 16 89.7 16 86Z" fill="#175D6C"/>
<path d="M70.2 75C69.1 73.2 69.2 73 71.8 73C74 73 76.8 70.7 85.5 62C91.5 56 96.9 51 97.5 51C98 51 92.6 56.9 85.5 64C78.4 71.2 72.3 77 72 77C71.7 77 70.9 76.1 70.2 75Z" fill="#175D6C"/>
<path d="M38.5 73C39.8 71.6 41.6 71 44.9 71C47.4 71 51.1 70.6 52.9 70C57.5 68.7 58.1 69.6 54.7 72.6C52.3 74.7 50.9 75 44.3 75C36.8 75 36.7 75 38.5 73Z" fill="#175D6C"/>
<path d="M43 68.5C45.4 65.6 50.5 64 57.1 64C63.1 64 63.3 64.1 61.6 65.9C60.6 67 57.9 68 54.7 68.4C51.8 68.7 47.7 69.3 45.5 69.6C41.8 70.2 41.6 70.2 43 68.5Z" fill="#175D6C"/>
<path d="M68.6 42.6C69.4 41.2 71.6 39 73.5 37.6C77.2 34.8 79.9 29 77.5 29C76.1 29 71 34.5 71 36C71 36.5 69.7 37.5 68 38.4C65.1 39.8 65 39.8 65 37.4C65 34.3 68.3 31 71.5 31C73.6 31 74 30.5 74 28C74 25.2 74.2 25 78 25H82V29.4C82 35.4 81.2 37 78.4 37C76.5 37 76 37.5 76 39.3C76 42.4 73.1 45 69.6 45C67 45 67 44.9 68.6 42.6Z" fill="#175D6C"/>
<path d="M89.8 43.8C92.7 40.9 89.1 39.9 85.2 42.6C83.1 44.1 83 44 83 41.1V38H89H95V41.5C95 44.8 94.8 45 91.8 45C89.3 45 88.9 44.7 89.8 43.8Z" fill="#175D6C"/>
<path d="M35.9 37.1C33 33.8 29.4 30.6 27.9 30.1C22.2 28.1 21 25.5 21 15.1V5.5L35 19.5C42.7 27.2 49 34 49 34.5C49 35.1 47.3 37.3 45.1 39.4L41.3 43.2L35.9 37.1ZM35.9 27.3C25.6 17.1 25.5 17 25.2 20C24.8 23.4 26.5 25.6 30.4 26.6C32.3 27 33 27.9 33 29.6C33 31.4 33.5 32 35.3 32C36.6 32 39 33.5 41 35.5C42.8 37.4 44.7 38.7 45.3 38.3C45.8 38 41.6 33.1 35.9 27.3Z" fill="#175D6C"/>
<path d="M85.7 34.3C84.3 33 85 25.2 86.5 24.6C87.5 24.2 88 24.7 88 26C88 29 89.3 28.4 93.9 23.5C97.7 19.4 98 18.6 98 13.3C98 10.1 98.4 6.80002 99 6.00002C99.5 5.10002 99.7 7.50002 99.3 12.5C98.8 20.5 98.8 20.5 93.7 25.8L88.6 31H98.8C108.3 31 109 31.1 109 33C109 34.9 108.3 35 97.7 35C91.4 35 86 34.7 85.7 34.3Z" fill="#175D6C"/>
<path d="M58 351C57.2 350.5 55.4 350 54 350C52.1 350 47.2 345.7 33.8 332.2C24 322.5 15.7 314.2 15.3 313.7C14.2 312.5 22.1 305 24.5 305C25.8 305 31.2 300.3 39.5 291.9C53.6 277.8 53 278.1 61.2 281.2L64.9 282.6L50.2 297.3C42.1 305.4 34.7 312 33.7 312C32.8 312 32 312.3 32 312.8C32 313.2 38.6 320.2 46.8 328.3L61.5 343H67.6C73.4 343 73.7 343.2 78 347.5L82.4 352H71C64.7 352 58.8 351.5 58 351Z" fill="white"/>
<path d="M50.4 325.8C44.7 320.3 40 315.2 40 314.6C40 314 47.3 306.2 56.2 297.3C72.4 281.1 72.5 281 77 281C79.5 281 82.4 280.3 83.4 279.5C84.5 278.7 86.7 278 88.3 278H91.3L86.4 283.5C73.3 298.4 60.1 311.3 57.9 311.6C56.6 311.7 55.3 311.9 55 311.9C54.8 312 58.1 315.6 62.5 320C67.3 324.9 71.3 328 72.5 328C73.7 328 76.4 329.8 78.5 332L82.4 336H71.6H60.9L50.4 325.8Z" fill="white"/>
<path d="M97.5 296.3L88.6 287L92.3 283.3L95.9 279.6L98.3 281.8C99.6 283 101.1 284 101.7 284C102.3 284 103.9 284.9 105.4 286.1C107.9 288 108 288.6 108 297.1C108 302 107.7 305.9 107.3 305.9C106.8 305.8 102.5 301.5 97.5 296.3Z" fill="white"/>
<path d="M24.5 293.3C24.7 288.8 24.3 285.8 23.4 284.5C22.5 283.2 22 279.6 22 274V265.5L43.9 243.6L65.8 221.7L70.9 226.5C73.7 229.1 77.5 232.3 79.4 233.7C86.5 238.4 86.3 239.3 76.6 248.8L67.9 257.3L64.5 254C62.6 252.1 61 250.1 61 249.5C61 247.8 67.4 242 69.3 242C71.7 242 71.4 240.5 68.6 238.7C66.4 237.2 66.1 237.3 60.1 242.8C56.7 245.9 54 248.9 54 249.5C54 250 56.4 252.8 59.2 255.7L64.4 261L55 270.5C49.8 275.7 45.3 280 45 280C44.7 280 44.5 276.7 44.5 272.6C44.5 266.4 44.9 264.8 46.6 262.8C48.8 260.4 48.8 258 46.6 258C44.9 258 30 273.4 30 275.2C30 278.3 31.5 277.9 35.7 273.8L40 269.6V277.4V285.2L32.8 292.6C28.9 296.7 25.3 300 25 300C24.6 300 24.4 297 24.5 293.3Z" fill="white"/>
<path d="M60.6 278.5C59.1 277.7 57 277 56.1 277C55.2 277 62.1 269.4 71.4 260.1C80.9 250.6 88.8 243.4 89.4 243.8C90 244.1 92.5 244.7 94.9 245C97.4 245.3 99.5 246 99.7 246.5C100.2 248.2 67.6 280 65.4 280C64.4 280 62.2 279.3 60.6 278.5Z" fill="white"/>
<path d="M76 278.2C76 277.3 101.3 252 102.3 252C102.7 252 103 254.8 103 258.3C103 262.7 102.4 265.4 101 267.8C99.9 269.6 99 272.2 99 273.5C99 275.9 98.8 276 92.1 276C88.3 276 83.7 276.7 81.7 277.5C77.7 279.2 76 279.4 76 278.2Z" fill="white"/>
<path d="M12 260.9V253.5L22.5 243C28.3 237.2 33 232.2 33 231.7C33 231.3 32.3 230.7 31.4 230.3C30.3 229.9 27.1 232.4 20.9 238.6L12 247.5V242.6C12 238.7 12.5 237.1 15 234.3C16.7 232.4 18 229.8 18 228.3C18 226.2 21 222.7 31.2 212.3C38.5 205 44.7 199 45 199C45.3 199 47 200.9 48.9 203.1L52.3 207.2L45.5 214C40.9 218.6 38.9 221.3 39.3 222.4C39.7 223.3 40.3 224 40.7 224C41.2 224 44.6 220.9 48.4 217.1L55.3 210.1L59.1 213.3C61.2 215.1 63 217 63 217.5C63 218.4 33.6 247.9 17.8 263L12 268.4V260.9Z" fill="white"/>
<path d="M104.5 242C104.2 241.5 101.8 241 99.3 241H94.6L73.3 219.8C61.6 208.1 52.2 198.5 52.3 198.3C52.5 198.2 57 198 62.3 197.9C67.6 197.8 72 197.4 72 197.1C72 196.7 66.4 190.6 59.5 183.5L47.1 170.5L54.7 170.2L62.4 169.9L88.5 196L114.5 222L105.5 221.4L96.5 220.7L88.4 212.9C80.5 205.2 78 203.6 78 206.3C78 207 85.9 215.2 95.5 224.5C105.1 233.8 113 241.8 113 242.2C113 243.4 105.2 243.2 104.5 242Z" fill="white"/>
<path d="M97.7 199.2C91.3 192.8 86 186.9 86 186.3C86 184.3 89.6 183 95.2 183C99.7 183 101.1 183.5 104.3 186.1C106.4 187.9 108 190.1 108 191.3C108.1 192.5 108.7 194.6 109.5 196C111 198.6 111.6 211 110.2 211C109.8 211 104.2 205.7 97.7 199.2Z" fill="white"/>
<path d="M34.7 180.4L21.9 167.8L26.7 168.4C29.3 168.8 33.7 169.3 36.4 169.6C41 170.2 41.9 170.8 52.9 181.6L64.5 193H56H47.5L34.7 180.4Z" fill="white"/>
<path d="M73 174.5C65.4 166.9 63 165 60.3 164.8C57 164.5 57.1 164.4 78 143.5L99 122.6L103.5 127C106 129.4 108 132.3 108 133.3C108 134.3 110.7 138 114 141.4L120 147.7V156.3C120 161.1 119.6 165 119.1 165C117.5 165 109 155.1 109 153.3C109 152.3 106.2 148.7 102.8 145.3L96.5 139.1L93.1 143.1L89.7 147.2L95.1 152.6C98 155.6 100.9 158 101.5 158C102.1 158 103.8 159.2 105.2 160.8C107.4 163.1 107.8 164.7 108.4 172.3C108.7 177.1 108.9 181 108.7 181C108.5 181 102.3 175 94.9 167.6L81.4 154.1L78.6 157.7L75.7 161.2L85.1 170.6C93.4 179 94.2 180 91.9 180C90.4 180 88.1 180.9 86.7 182C85.3 183.1 83.8 184 83.3 184C82.8 184 78.2 179.7 73 174.5Z" fill="white"/>
<path d="M31 166C30.2 165.5 24.8 165 19.1 165H8.60001L14.9 160.4L21.1 155.7L23.5 158C25 159.4 27.2 160.3 29 160.3C31 160.3 32.9 161.4 35.2 163.7L38.4 167H35.4C33.8 167 31.8 166.5 31 166Z" fill="white"/>
<path d="M35 157.5L27.5 150L30.8 146.8L34 143.6L38.9 148.4C41.6 151.1 44.2 153.1 44.8 152.9C47.2 151.9 100 99.5 100 98C100 97.1 99.1 95.5 98 94.5C96.1 92.7 96 92.8 96 94.6C96 95.8 86.3 106.2 71.2 121.3C48.1 144.4 46.3 146 42.9 146C40.6 146 38.7 145.3 37.5 144C35.6 141.9 35.9 141.6 66 111.5L96.5 81L102.8 87.3C108.6 93 109.1 93.8 108.6 97C107.1 107.5 108.3 106 78.2 136.3C43.9 170.6 46.7 169.3 35 157.5Z" fill="white"/>
<path d="M9 158.1C9 156.4 9.5 154.8 10 154.5C10.6 154.2 11 151.8 11 149.3C11 144.8 11.2 144.5 22.5 133C32.6 122.8 33.9 121.1 32.5 120C31.2 118.9 30.2 119.5 25.5 123.9C22.6 126.7 19.8 129 19.5 129C18.6 129 20 120.7 21.1 119.6C21.6 119 22 117 22 115.1C22 111.9 23.6 110 41.5 92.1L60.9 72.5L65.7 77.2C68.3 79.8 71.9 82.2 73.5 82.6C75.2 82.9 77.7 84.4 79.3 85.8L82 88.4L87.8 83C90.9 80 74.8 96.3 52 119.3C29.2 142.2 10.2 161 9.8 161C9.3 161 9 159.7 9 158.1ZM65.4 91.6C67.3 91 67.2 90.7 64.6 88.2C62.3 86.1 61.7 85.8 61.2 87C61 87.8 55.8 93.5 49.9 99.6C43.9 105.6 39 111.1 39 111.7C39 115 42.6 112.7 52.5 103C58.6 97.1 64.4 92 65.4 91.6Z" fill="white"/>
<path d="M22 97.5V89.7L30.6 81C39 72.4 39.2 72.2 44.8 71.7C47.9 71.3 52.1 70.8 54 70.4C57.3 69.8 56.8 70.5 44.5 83.1C37.3 90.5 29.4 98.5 26.8 100.9L22 105.3V97.5Z" fill="white"/>
<path d="M15.8 85.4C15 74.8 13.9 76.2 47.3 43C64.2 26.2 78.5 12.3 79 12.2C79.6 12 81.8 13.7 84 16.1C87.4 19.8 87.9 21 88.2 25.9L88.5 31.5L98.8 31.8L109 32.1V36.3C109 40.4 108.7 40.9 91.2 58.3C81.5 68 73 76 72.4 76C71.9 76 69.9 74.4 68 72.5L64.6 69L78.5 55C91.6 41.9 92.3 41 89.5 41C87 41 84.4 43.1 73.6 53.9C61.2 66.3 60.6 66.8 55.6 67.4C52.8 67.8 48.7 68.4 46.5 68.7C42.5 69.2 42.5 69.2 60.8 50.8C73.2 38.2 79 31.7 79 30.2C79 27.1 77.7 27.5 73.8 31.8C71.8 33.8 58.1 47.6 43.2 62.4L16.1 89.3L15.8 85.4Z" fill="white"/>
<path d="M12 66.7C12 66.5 13.5 65.1 15.3 63.4L18.5 60.5L15.6 63.8C12.8 66.8 12 67.5 12 66.7Z" fill="white"/>
<path d="M35.5 36C32.2 32.7 29 30 28.3 30C27.7 30 26 29 24.7 27.8C22.5 25.8 22.1 24.4 21.7 16.2C21.4 11.1 21.4 7 21.8 7.2C22.2 7.4 28.6 13.7 35.9 21.3L49.3 35L46 38.5C44.1 40.4 42.3 42 42 42C41.7 42 38.8 39.3 35.5 36Z" fill="white"/>
</g>
<defs>
<clipPath id="clip0_1_187">
<rect width="122.69" height="352.72" fill="white" transform="translate(0 0.279938)"/>
</clipPath>
</defs>
</svg>
